{
    "asset" : {
        "generator" : "Khronos glTF Blender I/O v1.6.16",
        "version" : "2.0"
    },
    "scene" : 0,
    "scenes" : [
        {
            "name" : "Scene",
            "nodes" : [
                0,
                1,
                2
            ]
        }
    ],
    "nodes" : [
        {
            "name" : "Camera",
            "rotation" : [
                0.483536034822464,
                0.33687159419059753,
                -0.20870360732078552,
                0.7804827094078064
            ],
            "translation" : [
                7.358891487121582,
                4.958309173583984,
                6.925790786743164
            ]
        },
        {
            "mesh" : 0,
            "name" : "Icosphere",
            "scale" : [
                16.696990966796875,
                16.696990966796875,
                16.696990966796875
            ]
        },
        {
            "name" : "Sun"
        }
    ],
    "materials" : [
        {
            "doubleSided" : true,
            "name" : "Material.001",
            "pbrMetallicRoughness" : {
                "baseColorFactor" : [
                    0.15232519805431366,
                    0.045050885528326035,
                    0.01633051410317421,
                    1
                ],
                "metallicFactor" : 0,
                "roughnessFactor" : 0.5
            }
        },
        {
            "doubleSided" : true,
            "name" : "Material",
            "pbrMetallicRoughness" : {
                "baseColorFactor" : [
                    0.28100982308387756,
                    0.11952237039804459,
                    0.06582863628864288,
                    1
                ],
                "metallicFactor" : 0,
                "roughnessFactor" : 0.5
            }
        },
        {
            "doubleSided" : true,
            "name" : "Material.002",
            "pbrMetallicRoughness" : {
                "baseColorFactor" : [
                    0.2265842854976654,
                    0.09021073579788208,
                    0.03437705710530281,
                    1
                ],
                "metallicFactor" : 0,
                "roughnessFactor" : 0.5
            }
        },
        {
            "doubleSided" : true,
            "name" : "Material.003",
            "pbrMetallicRoughness" : {
                "baseColorFactor" : [
                    0.2529434263706207,
                    0.08410977572202682,
                    0.07006560266017914,
                    1
                ],
                "metallicFactor" : 0,
                "roughnessFactor" : 0.5
            }
        },
        {
            "doubleSided" : true,
            "name" : "Material.004",
            "pbrMetallicRoughness" : {
                "baseColorFactor" : [
                    0.28100982308387756,
                    0.10947438329458237,
                    0.06916580349206924,
                    1
                ],
                "metallicFactor" : 0,
                "roughnessFactor" : 0.5
            }
        },
        {
            "doubleSided" : true,
            "name" : "Material.005",
            "pbrMetallicRoughness" : {
                "baseColorFactor" : [
                    0.2265842854976654,
                    0.0710311308503151,
                    0.04064485430717468,
                    1
                ],
                "metallicFactor" : 0,
                "roughnessFactor" : 0.5
            }
        },
        {
            "doubleSided" : true,
            "name" : "Material.006",
            "pbrMetallicRoughness" : {
                "baseColorFactor" : [
                    0.2597988247871399,
                    0.10698749870061874,
                    0.017442112788558006,
                    1
                ],
                "metallicFactor" : 0,
                "roughnessFactor" : 0.5
            }
        },
        {
            "doubleSided" : true,
            "name" : "Material.007",
            "pbrMetallicRoughness" : {
                "baseColorFactor" : [
                    0.24619480967521667,
                    0.05882040038704872,
                    0.0016126367263495922,
                    1
                ],
                "metallicFactor" : 0,
                "roughnessFactor" : 0.5
            }
        },
        {
            "doubleSided" : true,
            "name" : "Material.008",
            "pbrMetallicRoughness" : {
                "baseColorFactor" : [
                    0.2597988247871399,
                    0.08733437210321426,
                    0.007902314886450768,
                    1
                ],
                "metallicFactor" : 0,
                "roughnessFactor" : 0.5
            }
        },
        {
            "doubleSided" : true,
            "name" : "Material.009",
            "pbrMetallicRoughness" : {
                "baseColorFactor" : [
                    0.2597988247871399,
                    0.028547491878271103,
                    0.010127183981239796,
                    1
                ],
                "metallicFactor" : 0,
                "roughnessFactor" : 0.5
            }
        }
    ],
    "meshes" : [
        {
            "name" : "Icosphere",
            "primitives" : [
                {
                    "attributes" : {
                        "POSITION" : 0,
                        "NORMAL" : 1,
                        "TEXCOORD_0" : 2
                    },
                    "indices" : 3,
                    "material" : 0
                },
                {
                    "attributes" : {
                        "POSITION" : 4,
                        "NORMAL" : 5,
                        "TEXCOORD_0" : 6
                    },
                    "indices" : 7,
                    "material" : 1
                },
                {
                    "attributes" : {
                        "POSITION" : 8,
                        "NORMAL" : 9,
                        "TEXCOORD_0" : 10
                    },
                    "indices" : 11,
                    "material" : 2
                },
                {
                    "attributes" : {
                        "POSITION" : 12,
                        "NORMAL" : 13,
                        "TEXCOORD_0" : 14
                    },
                    "indices" : 15,
                    "material" : 3
                },
                {
                    "attributes" : {
                        "POSITION" : 16,
                        "NORMAL" : 17,
                        "TEXCOORD_0" : 18
                    },
                    "indices" : 19,
                    "material" : 4
                },
                {
                    "attributes" : {
                        "POSITION" : 20,
                        "NORMAL" : 21,
                        "TEXCOORD_0" : 22
                    },
                    "indices" : 23,
                    "material" : 5
                },
                {
                    "attributes" : {
                        "POSITION" : 24,
                        "NORMAL" : 25,
                        "TEXCOORD_0" : 26
                    },
                    "indices" : 27,
                    "material" : 6
                },
                {
                    "attributes" : {
                        "POSITION" : 28,
                        "NORMAL" : 29,
                        "TEXCOORD_0" : 30
                    },
                    "indices" : 31,
                    "material" : 7
                },
                {
                    "attributes" : {
                        "POSITION" : 32,
                        "NORMAL" : 33,
                        "TEXCOORD_0" : 34
                    },
                    "indices" : 35,
                    "material" : 8
                },
                {
                    "attributes" : {
                        "POSITION" : 36,
                        "NORMAL" : 37,
                        "TEXCOORD_0" : 38
                    },
                    "indices" : 39,
                    "material" : 9
                }
            ]
        }
    ],
    "accessors" : [
        {
            "bufferView" : 0,
            "componentType" : 5126,
            "count" : 3768,
            "max" : [
                0.877223551273346,
                0.9913834929466248,
                0.9933975338935852
            ],
            "min" : [
                -0.6277555227279663,
                -1.0131473541259766,
                -0.8460109829902649
            ],
            "type" : "VEC3"
        },
        {
            "bufferView" : 1,
            "componentType" : 5126,
            "count" : 3768,
            "type" : "VEC3"
        },
        {
            "bufferView" : 2,
            "componentType" : 5126,
            "count" : 3768,
            "type" : "VEC2"
        },
        {
            "bufferView" : 3,
            "componentType" : 5123,
            "count" : 3768,
            "type" : "SCALAR"
        },
        {
            "bufferView" : 4,
            "componentType" : 5126,
            "count" : 1872,
            "max" : [
                0.844508171081543,
                0.8240187764167786,
                0.7772062420845032
            ],
            "min" : [
                -0.7693169116973877,
                0.5241788029670715,
                -0.8108506798744202
            ],
            "type" : "VEC3"
        },
        {
            "bufferView" : 5,
            "componentType" : 5126,
            "count" : 1872,
            "type" : "VEC3"
        },
        {
            "bufferView" : 6,
            "componentType" : 5126,
            "count" : 1872,
            "type" : "VEC2"
        },
        {
            "bufferView" : 7,
            "componentType" : 5123,
            "count" : 1872,
            "type" : "SCALAR"
        },
        {
            "bufferView" : 8,
            "componentType" : 5126,
            "count" : 2211,
            "max" : [
                0.9185798764228821,
                0.6705448031425476,
                0.8979813456535339
            ],
            "min" : [
                -0.9079235792160034,
                0.3202299475669861,
                -0.9025733470916748
            ],
            "type" : "VEC3"
        },
        {
            "bufferView" : 9,
            "componentType" : 5126,
            "count" : 2211,
            "type" : "VEC3"
        },
        {
            "bufferView" : 10,
            "componentType" : 5126,
            "count" : 2211,
            "type" : "VEC2"
        },
        {
            "bufferView" : 11,
            "componentType" : 5123,
            "count" : 2211,
            "type" : "SCALAR"
        },
        {
            "bufferView" : 12,
            "componentType" : 5126,
            "count" : 2370,
            "max" : [
                0.989529013633728,
                0.48749464750289917,
                0.9642764925956726
            ],
            "min" : [
                -0.9809979796409607,
                0.14515089988708496,
                -0.9756720662117004
            ],
            "type" : "VEC3"
        },
        {
            "bufferView" : 13,
            "componentType" : 5126,
            "count" : 2370,
            "type" : "VEC3"
        },
        {
            "bufferView" : 14,
            "componentType" : 5126,
            "count" : 2370,
            "type" : "VEC2"
        },
        {
            "bufferView" : 15,
            "componentType" : 5123,
            "count" : 2370,
            "type" : "SCALAR"
        },
        {
            "bufferView" : 16,
            "componentType" : 5126,
            "count" : 2526,
            "max" : [
                1.0078448057174683,
                0.2997499704360962,
                0.997925341129303
            ],
            "min" : [
                -1.005821943283081,
                -0.24021005630493164,
                -1.0101453065872192
            ],
            "type" : "VEC3"
        },
        {
            "bufferView" : 17,
            "componentType" : 5126,
            "count" : 2526,
            "type" : "VEC3"
        },
        {
            "bufferView" : 18,
            "componentType" : 5126,
            "count" : 2526,
            "type" : "VEC2"
        },
        {
            "bufferView" : 19,
            "componentType" : 5123,
            "count" : 2526,
            "type" : "SCALAR"
        },
        {
            "bufferView" : 20,
            "componentType" : 5126,
            "count" : 2511,
            "max" : [
                1.0094586610794067,
                0.08553878962993622,
                0.9992462396621704
            ],
            "min" : [
                -1.0060665607452393,
                -1.0131473541259766,
                -1.0129934549331665
            ],
            "type" : "VEC3"
        },
        {
            "bufferView" : 21,
            "componentType" : 5126,
            "count" : 2511,
            "type" : "VEC3"
        },
        {
            "bufferView" : 22,
            "componentType" : 5126,
            "count" : 2511,
            "type" : "VEC2"
        },
        {
            "bufferView" : 23,
            "componentType" : 5123,
            "count" : 2511,
            "type" : "SCALAR"
        },
        {
            "bufferView" : 24,
            "componentType" : 5126,
            "count" : 3684,
            "max" : [
                0.9840197563171387,
                -0.12274956703186035,
                0.9889093637466431
            ],
            "min" : [
                -0.9846342206001282,
                -0.5978776812553406,
                -0.9884281158447266
            ],
            "type" : "VEC3"
        },
        {
            "bufferView" : 25,
            "componentType" : 5126,
            "count" : 3684,
            "type" : "VEC3"
        },
        {
            "bufferView" : 26,
            "componentType" : 5126,
            "count" : 3684,
            "type" : "VEC2"
        },
        {
            "bufferView" : 27,
            "componentType" : 5123,
            "count" : 3684,
            "type" : "SCALAR"
        },
        {
            "bufferView" : 28,
            "componentType" : 5126,
            "count" : 3066,
            "max" : [
                0.8593133091926575,
                -0.42456191778182983,
                0.8409638404846191
            ],
            "min" : [
                -0.8668622374534607,
                -0.8238593339920044,
                -0.9043458700180054
            ],
            "type" : "VEC3"
        },
        {
            "bufferView" : 29,
            "componentType" : 5126,
            "count" : 3066,
            "type" : "VEC3"
        },
        {
            "bufferView" : 30,
            "componentType" : 5126,
            "count" : 3066,
            "type" : "VEC2"
        },
        {
            "bufferView" : 31,
            "componentType" : 5123,
            "count" : 3066,
            "type" : "SCALAR"
        },
        {
            "bufferView" : 32,
            "componentType" : 5126,
            "count" : 2046,
            "max" : [
                0.6253799200057983,
                -0.7191466093063354,
                0.6542677879333496
            ],
            "min" : [
                -0.6440368294715881,
                -0.9504154324531555,
                -0.6919816732406616
            ],
            "type" : "VEC3"
        },
        {
            "bufferView" : 33,
            "componentType" : 5126,
            "count" : 2046,
            "type" : "VEC3"
        },
        {
            "bufferView" : 34,
            "componentType" : 5126,
            "count" : 2046,
            "type" : "VEC2"
        },
        {
            "bufferView" : 35,
            "componentType" : 5123,
            "count" : 2046,
            "type" : "SCALAR"
        },
        {
            "bufferView" : 36,
            "componentType" : 5126,
            "count" : 528,
            "max" : [
                -0.7370933294296265,
                0.09826502203941345,
                0.6635478138923645
            ],
            "min" : [
                -1.0060665607452393,
                -0.3529016673564911,
                -0.05600259453058243
            ],
            "type" : "VEC3"
        },
        {
            "bufferView" : 37,
            "componentType" : 5126,
            "count" : 528,
            "type" : "VEC3"
        },
        {
            "bufferView" : 38,
            "componentType" : 5126,
            "count" : 528,
            "type" : "VEC2"
        },
        {
            "bufferView" : 39,
            "componentType" : 5123,
            "count" : 528,
            "type" : "SCALAR"
        }
    ],
    "bufferViews" : [
        {
            "buffer" : 0,
            "byteLength" : 45216,
            "byteOffset" : 0
        },
        {
            "buffer" : 0,
            "byteLength" : 45216,
            "byteOffset" : 45216
        },
        {
            "buffer" : 0,
            "byteLength" : 30144,
            "byteOffset" : 90432
        },
        {
            "buffer" : 0,
            "byteLength" : 7536,
            "byteOffset" : 120576
        },
        {
            "buffer" : 0,
            "byteLength" : 22464,
            "byteOffset" : 128112
        },
        {
            "buffer" : 0,
            "byteLength" : 22464,
            "byteOffset" : 150576
        },
        {
            "buffer" : 0,
            "byteLength" : 14976,
            "byteOffset" : 173040
        },
        {
            "buffer" : 0,
            "byteLength" : 3744,
            "byteOffset" : 188016
        },
        {
            "buffer" : 0,
            "byteLength" : 26532,
            "byteOffset" : 191760
        },
        {
            "buffer" : 0,
            "byteLength" : 26532,
            "byteOffset" : 218292
        },
        {
            "buffer" : 0,
            "byteLength" : 17688,
            "byteOffset" : 244824
        },
        {
            "buffer" : 0,
            "byteLength" : 4422,
            "byteOffset" : 262512
        },
        {
            "buffer" : 0,
            "byteLength" : 28440,
            "byteOffset" : 266936
        },
        {
            "buffer" : 0,
            "byteLength" : 28440,
            "byteOffset" : 295376
        },
        {
            "buffer" : 0,
            "byteLength" : 18960,
            "byteOffset" : 323816
        },
        {
            "buffer" : 0,
            "byteLength" : 4740,
            "byteOffset" : 342776
        },
        {
            "buffer" : 0,
            "byteLength" : 30312,
            "byteOffset" : 347516
        },
        {
            "buffer" : 0,
            "byteLength" : 30312,
            "byteOffset" : 377828
        },
        {
            "buffer" : 0,
            "byteLength" : 20208,
            "byteOffset" : 408140
        },
        {
            "buffer" : 0,
            "byteLength" : 5052,
            "byteOffset" : 428348
        },
        {
            "buffer" : 0,
            "byteLength" : 30132,
            "byteOffset" : 433400
        },
        {
            "buffer" : 0,
            "byteLength" : 30132,
            "byteOffset" : 463532
        },
        {
            "buffer" : 0,
            "byteLength" : 20088,
            "byteOffset" : 493664
        },
        {
            "buffer" : 0,
            "byteLength" : 5022,
            "byteOffset" : 513752
        },
        {
            "buffer" : 0,
            "byteLength" : 44208,
            "byteOffset" : 518776
        },
        {
            "buffer" : 0,
            "byteLength" : 44208,
            "byteOffset" : 562984
        },
        {
            "buffer" : 0,
            "byteLength" : 29472,
            "byteOffset" : 607192
        },
        {
            "buffer" : 0,
            "byteLength" : 7368,
            "byteOffset" : 636664
        },
        {
            "buffer" : 0,
            "byteLength" : 36792,
            "byteOffset" : 644032
        },
        {
            "buffer" : 0,
            "byteLength" : 36792,
            "byteOffset" : 680824
        },
        {
            "buffer" : 0,
            "byteLength" : 24528,
            "byteOffset" : 717616
        },
        {
            "buffer" : 0,
            "byteLength" : 6132,
            "byteOffset" : 742144
        },
        {
            "buffer" : 0,
            "byteLength" : 24552,
            "byteOffset" : 748276
        },
        {
            "buffer" : 0,
            "byteLength" : 24552,
            "byteOffset" : 772828
        },
        {
            "buffer" : 0,
            "byteLength" : 16368,
            "byteOffset" : 797380
        },
        {
            "buffer" : 0,
            "byteLength" : 4092,
            "byteOffset" : 813748
        },
        {
            "buffer" : 0,
            "byteLength" : 6336,
            "byteOffset" : 817840
        },
        {
            "buffer" : 0,
            "byteLength" : 6336,
            "byteOffset" : 824176
        },
        {
            "buffer" : 0,
            "byteLength" : 4224,
            "byteOffset" : 830512
        },
        {
            "buffer" : 0,
            "byteLength" : 1056,
            "byteOffset" : 834736
        }
    ],
    "buffers" : [
        {
            "byteLength" : 835792,
            "uri" : "Jupiter2.bin"
        }
    ]
}
